<?xml version="1.0" standalone="no"?>
<!DOCTYPE svg PUBLIC "-//W3C//DTD SVG 20010904//EN"
 "http://www.w3.org/TR/2001/REC-SVG-20010904/DTD/svg10.dtd">
<svg version="1.0" xmlns="http://www.w3.org/2000/svg"
 width="1300.000000pt" height="1300.000000pt" viewBox="0 0 1300.000000 1300.000000"
 preserveAspectRatio="xMidYMid meet">
<metadata>
Created by potrace 1.14, written by Peter Selinger 2001-2017
</metadata>
<g transform="translate(0.000000,1300.000000) scale(0.100000,-0.100000)"
fill="#000000" stroke="none">
<path d="M7068 10820 c-9 -6 -40 -34 -70 -63 -156 -151 -547 -351 -926 -473
-46 -14 -85 -24 -88 -22 -2 3 12 38 32 78 46 93 75 183 77 239 1 36 -3 47 -26
67 -50 42 -76 34 -212 -68 -216 -163 -471 -303 -770 -423 -49 -20 -99 -40
-110 -45 -53 -25 -360 -131 -655 -225 -318 -101 -647 -243 -841 -363 l-67 -40
-78 111 c-179 252 -394 415 -596 453 -247 45 -454 2 -594 -126 -111 -101 -186
-295 -186 -482 0 -275 168 -617 397 -805 l35 -29 -57 -39 c-32 -21 -62 -44
-68 -49 -5 -6 -30 -27 -55 -47 -220 -178 -444 -491 -549 -769 -33 -88 -42
-113 -43 -120 0 -3 -5 -16 -10 -30 -19 -45 -47 -163 -42 -172 3 -4 1 -8 -3 -8
-9 0 -39 -158 -51 -270 -12 -113 -8 -507 6 -533 2 -5 6 -36 8 -69 3 -33 7 -65
11 -71 3 -6 8 -30 10 -55 2 -25 9 -54 14 -64 6 -11 8 -22 5 -25 -3 -3 -1 -14
5 -25 6 -11 13 -32 15 -46 6 -33 69 -221 90 -271 9 -20 23 -52 32 -71 8 -19
16 -37 17 -40 0 -3 17 -38 37 -78 20 -41 35 -82 33 -91 -2 -10 -6 -53 -10 -97
-3 -43 -8 -95 -10 -114 -5 -45 -13 -143 -20 -245 -3 -44 -8 -102 -10 -130 -2
-27 -7 -97 -10 -155 -3 -58 -8 -136 -10 -175 -2 -38 -7 -135 -10 -215 -4 -80
-8 -174 -10 -210 -27 -464 -27 -2186 1 -3316 2 -105 6 -357 8 -561 3 -283 7
-375 17 -391 17 -27 61 -46 94 -40 14 3 25 1 25 -3 0 -5 2035 -9 4604 -9 4067
0 4608 2 4639 15 55 23 58 30 72 210 23 292 30 594 30 1335 -1 819 -17 1694
-40 2130 -3 52 -7 147 -10 210 -6 120 -11 226 -20 370 -3 47 -8 128 -10 180
-3 52 -7 118 -10 145 -2 28 -7 86 -10 130 -13 190 -25 343 -31 405 -2 25 -6
82 -9 126 -3 45 -8 91 -10 103 -2 12 10 39 31 68 19 27 37 56 40 66 4 9 10 17
15 17 5 0 9 6 9 14 0 8 4 16 8 18 15 6 168 288 157 288 -3 0 1 10 9 23 25 37
120 307 109 307 -3 0 0 6 6 14 6 8 11 18 10 22 -1 5 0 12 1 17 1 4 4 12 5 17
1 6 4 11 5 13 1 1 4 11 5 22 2 11 11 56 20 100 9 44 19 98 21 120 2 22 7 67
11 100 10 74 10 434 0 495 -4 25 -9 63 -12 85 -5 45 -11 78 -19 115 -4 14 -9
39 -11 55 -3 17 -9 39 -12 50 -4 11 -7 25 -8 30 0 6 -9 37 -19 70 -10 33 -19
65 -20 70 -1 6 -7 20 -14 32 -7 12 -12 27 -12 34 0 18 -93 223 -105 231 -6 5
-6 8 0 8 7 0 7 3 0 8 -5 4 -23 32 -39 62 -28 52 -103 169 -115 180 -4 3 -26
32 -50 65 -47 64 -233 253 -290 295 -18 14 -48 37 -66 53 -18 15 -36 27 -41
27 -4 0 -15 7 -25 16 -17 15 -15 20 30 82 132 187 243 421 266 565 3 17 7 43
10 57 8 43 9 142 1 200 -22 157 -123 324 -247 406 -119 79 -220 105 -394 100
-134 -4 -149 -7 -248 -41 -174 -61 -326 -182 -479 -380 -39 -49 -74 -92 -79
-93 -5 -2 -58 27 -117 65 -335 217 -655 372 -992 482 -123 41 -393 111 -425
111 -14 0 -14 5 5 36 57 92 94 198 84 239 -8 31 -49 65 -79 65 -12 0 -114 -25
-226 -56 -112 -31 -211 -57 -219 -59 -8 -2 -51 -12 -95 -23 -80 -20 -164 -38
-220 -46 -16 -2 -48 -7 -70 -10 -22 -3 -61 -8 -88 -11 -43 -4 -46 -2 -37 13
78 127 96 162 118 232 32 99 48 200 43 263 -3 46 -80 82 -123 57z"/>
</g>
</svg>
